<?xml version="1.0" encoding="UTF-8"?><svg id="Layer_1" xmlns="http://www.w3.org/2000/svg" viewBox="0 0 955 349"><path d="M446.048,78.895c12.069-12.574,28.872-20.375,47.456-20.375,24.702,0,46.256,13.774,57.73,34.226,9.978-4.459,21.018-6.938,32.633-6.938,44.555,0,80.676,36.436,80.676,81.386s-36.122,81.385-80.676,81.385c-5.441,0-10.754-.547-15.894-1.583-10.104,18.024-29.368,30.206-51.473,30.206-9.254,0-18.008-2.135-25.801-5.939-10.244,24.103-34.12,41.002-61.938,41.002-28.974,0-53.669-18.332-63.143-44.042-4.144.876-8.438,1.337-12.84,1.337-34.497,0-62.46-28.257-62.46-63.112,0-23.362,12.562-43.757,31.233-54.667-3.844-8.849-5.979-18.608-5.979-28.867,0-40.088,32.542-72.588,72.683-72.588,23.568,0,44.513,11.204,57.793,28.569Z" fill="#009cdb"/><path d="M344.521,186.161c-.236.614.084.741.16.85.702.509,1.417.877,2.137,1.29,3.816,2.021,7.422,2.613,11.189,2.613,7.677,0,12.446-4.081,12.446-10.653v-.129c0-6.077-5.383-8.286-10.428-9.88l-.659-.212c-3.804-1.235-7.088-2.304-7.088-4.81v-.129c0-2.146,1.92-3.724,4.894-3.724,3.307,0,7.225,1.1,9.753,2.495,0,0,.745.481,1.017-.238.146-.389,1.425-3.83,1.56-4.203.146-.403-.11-.706-.372-.863-2.887-1.758-6.872-2.954-10.999-2.954l-.767.003c-7.025,0-11.932,4.249-11.932,10.329v.13c0,6.408,5.411,8.492,10.482,9.939l.814.252c3.693,1.133,6.88,2.112,6.88,4.709v.13c0,2.378-2.072,4.145-5.409,4.145-1.294,0-5.425-.021-9.888-2.845-.54-.314-.849-.541-1.265-.795-.22-.134-.77-.375-1.009.346l-1.515,4.203Z" fill="#fff"/><path d="M456.901,186.161c-.235.614.083.741.161.85.701.509,1.415.877,2.135,1.29,3.816,2.021,7.423,2.613,11.189,2.613,7.677,0,12.446-4.081,12.446-10.653v-.129c0-6.077-5.382-8.286-10.428-9.88l-.658-.212c-3.805-1.235-7.09-2.304-7.09-4.81v-.129c0-2.146,1.92-3.724,4.896-3.724,3.306,0,7.224,1.1,9.751,2.495,0,0,.745.481,1.016-.238.146-.389,1.425-3.83,1.56-4.203.146-.403-.11-.706-.372-.863-2.887-1.758-6.872-2.954-10.999-2.954l-.767.003c-7.025,0-11.932,4.249-11.932,10.329v.13c0,6.408,5.411,8.492,10.482,9.939l.814.252c3.693,1.133,6.882,2.112,6.882,4.709v.13c0,2.378-2.073,4.145-5.409,4.145-1.296,0-5.426-.021-9.888-2.845-.541-.314-.857-.532-1.266-.795-.14-.089-.787-.341-1.008.346l-1.516,4.203Z" fill="#fff"/><path d="M540.029,166.401c-.631-2.13-1.613-4.004-2.917-5.567-1.308-1.568-2.962-2.828-4.922-3.741-1.958-.915-4.269-1.378-6.868-1.378s-4.912.463-6.871,1.378c-1.958.913-3.613,2.173-4.921,3.744-1.304,1.566-2.287,3.438-2.915,5.564-.626,2.114-.943,4.43-.943,6.884s.317,4.775.943,6.884c.628,2.126,1.609,3.999,2.917,5.568,1.308,1.57,2.968,2.82,4.922,3.71,1.96.892,4.271,1.345,6.868,1.345s4.906-.454,6.866-1.345c1.958-.89,3.615-2.14,4.925-3.71,1.304-1.564,2.286-3.439,2.917-5.568.624-2.114.941-4.431.941-6.884s-.317-4.769-.941-6.884M533.619,173.285c0,3.713-.693,6.644-2.054,8.711-1.354,2.049-3.395,3.045-6.242,3.045s-4.878-.995-6.209-3.043c-1.344-2.068-2.026-5-2.026-8.713s.682-6.632,2.025-8.677c1.332-2.029,3.362-3.013,6.21-3.013s4.889.986,6.242,3.014c1.364,2.044,2.054,4.966,2.054,8.676" fill="#fff"/><path d="M592.646,184.048c-.211-.623-.818-.388-.818-.388-.932.357-1.921.686-2.98.851-1.067.168-2.249.252-3.513.252-3.098,0-5.566-.924-7.328-2.746-1.768-1.825-2.763-4.774-2.753-8.76.011-3.625.888-6.355,2.46-8.438,1.56-2.068,3.941-3.129,7.107-3.129,2.645,0,4.662.306,6.776.97,0,0,.501.219.743-.443.561-1.558.977-2.667,1.576-4.377.171-.489-.247-.695-.4-.755-.83-.324-2.793-.855-4.273-1.08-1.386-.212-3.004-.322-4.809-.322-2.691,0-5.09.46-7.142,1.374-2.048.912-3.784,2.171-5.16,3.737-1.376,1.57-2.424,3.443-3.117,5.568-.696,2.115-1.046,4.436-1.046,6.898,0,5.315,1.434,9.608,4.263,12.754,2.837,3.157,7.095,4.76,12.652,4.76,3.282,0,6.649-.663,9.074-1.618,0,0,.462-.223.26-.761l-1.575-4.347Z" fill="#fff" fill-rule="evenodd"/><path d="M625.429,165.192c-.545-2.055-1.891-4.129-2.774-5.078-1.396-1.504-2.762-2.557-4.12-3.138-1.767-.759-3.89-1.261-6.212-1.261-2.707,0-5.167.457-7.162,1.392-1.997.937-3.676,2.22-4.992,3.811-1.319,1.591-2.307,3.485-2.938,5.633-.632,2.135-.952,4.463-.952,6.921,0,2.5.332,4.831.984,6.926.658,2.114,1.716,3.969,3.142,5.513,1.426,1.55,3.262,2.765,5.456,3.612,2.182.845,4.833,1.284,7.873,1.274,6.267-.02,9.563-1.418,10.925-2.17.24-.134.467-.367.184-1.037l-1.419-3.971c-.218-.593-.816-.379-.816-.379-1.555.58-3.757,1.615-8.905,1.605-3.362-.005-5.854-.999-7.42-2.553-1.602-1.587-2.389-3.92-2.522-7.213l21.686.016s.572-.005.631-.564c.024-.231.745-4.455-.647-9.34ZM603.858,169.726c.306-2.064.871-3.779,1.752-5.117,1.329-2.029,3.354-3.146,6.202-3.146s4.725,1.119,6.079,3.147c.893,1.34,1.284,3.126,1.437,5.119l-15.47-.003Z" fill="#fff" fill-rule="evenodd"/><path d="M451.713,165.192c-.544-2.055-1.891-4.129-2.773-5.078-1.396-1.504-2.762-2.557-4.119-3.138-1.77-.759-3.891-1.261-6.212-1.261-2.707,0-5.167.457-7.162,1.392-1.998.937-3.676,2.22-4.995,3.811-1.316,1.591-2.304,3.485-2.938,5.633-.631,2.135-.949,4.463-.949,6.921,0,2.5.329,4.831.984,6.926.658,2.114,1.716,3.969,3.141,5.513,1.427,1.55,3.262,2.765,5.456,3.612,2.183.845,4.831,1.284,7.874,1.274,6.265-.02,9.563-1.418,10.925-2.17.239-.134.467-.367.183-1.037l-1.418-3.971c-.219-.593-.818-.379-.818-.379-1.554.58-3.756,1.615-8.905,1.605-3.361-.005-5.855-.999-7.42-2.553-1.601-1.587-2.389-3.92-2.522-7.213l21.687.016s.572-.005.631-.564c.024-.231.744-4.455-.649-9.34ZM430.142,169.726c.306-2.064.873-3.779,1.752-5.117,1.331-2.029,3.353-3.146,6.202-3.146s4.727,1.119,6.08,3.147c.892,1.34,1.282,3.126,1.435,5.119l-15.47-.003Z" fill="#fff" fill-rule="evenodd"/><path d="M391.889,168.686c-.881-.064-2.02-.097-3.386-.097-1.858,0-3.655.231-5.342.685-1.695.457-3.219,1.164-4.529,2.1-1.319.945-2.377,2.148-3.146,3.577-.769,1.431-1.162,3.114-1.162,4.999,0,1.923.334,3.589.995,4.951.663,1.371,1.614,2.514,2.828,3.396,1.206.878,2.694,1.521,4.419,1.915,1.704.388,3.635.585,5.743.585,2.228,0,4.443-.187,6.589-.549,2.13-.362,4.739-.893,5.464-1.061.722-.166,1.52-.385,1.52-.385.537-.136.496-.709.496-.709l-.012-19.837c0-4.351-1.16-7.573-3.447-9.575-2.276-1.991-5.628-2.998-9.962-2.998-1.629,0-4.243.22-5.814.534,0,0-4.735.918-6.686,2.447,0,0-.428.265-.195.862l1.536,4.125c.191.534.712.352.712.352,0,0,.164-.064.357-.178,4.171-2.268,9.45-2.201,9.45-2.201,2.342,0,4.148.474,5.36,1.402,1.184.909,1.785,2.277,1.785,5.168v.917c-1.86-.269-3.573-.424-3.573-.424ZM383.258,183.929c-.851-.679-.97-.846-1.251-1.286-.43-.665-.65-1.611-.65-2.823,0-1.904.632-3.276,1.936-4.197-.013.003,1.869-1.625,6.291-1.567,3.107.039,5.888.501,5.888.501v9.86h.003s-2.757.592-5.86.779c-4.411.266-6.37-1.27-6.357-1.266Z" fill="#fff"/><path d="M566.836,157.512c.167-.49-.183-.728-.325-.781-.371-.14-2.214-.529-3.636-.618-2.726-.169-4.238.29-5.593.9-1.345.607-2.835,1.587-3.664,2.704l-.003-2.645c0-.362-.258-.655-.623-.655h-5.56c-.361,0-.622.293-.622.655v32.357c0,.362.294.658.658.658h5.7c.363,0,.657-.295.657-.658v-16.163c0-2.171.24-4.335.717-5.695.47-1.345,1.109-2.418,1.901-3.189.79-.769,1.693-1.311,2.679-1.611,1.008-.308,2.123-.41,2.91-.41,1.133,0,2.382.291,2.382.291.419.046.651-.209.792-.587.373-.991,1.429-3.963,1.63-4.553Z" fill="#fff" fill-rule="evenodd"/><path d="M513.345,142.517c-.693-.214-1.321-.356-2.144-.509-.834-.15-1.825-.228-2.947-.228-3.922,0-7.015,1.109-9.186,3.298-2.157,2.173-3.624,5.483-4.359,9.837l-.266,1.469h-4.924s-.602-.024-.728.631l-.808,4.51c-.056.431.129.701.708.698h4.792l-4.864,27.147c-.38,2.186-.816,3.984-1.299,5.347-.477,1.345-.941,2.353-1.513,3.084-.553.708-1.08,1.23-1.985,1.533-.749.251-1.61.367-2.553.367-.525,0-1.223-.087-1.739-.191-.516-.102-.784-.218-1.171-.38,0,0-.563-.214-.784.349-.18.461-1.457,3.975-1.609,4.408-.153.43.063.768.334.865.638.228,1.113.375,1.982.58,1.207.285,2.225.302,3.177.302,1.997,0,3.816-.281,5.324-.826,1.519-.548,2.84-1.504,4.008-2.797,1.264-1.396,2.059-2.857,2.818-4.851.753-1.977,1.394-4.428,1.907-7.287l4.886-27.65h7.145s.602.023.727-.631l.808-4.51c.056-.431-.128-.701-.708-.698h-6.934c.035-.157.349-2.596,1.145-4.892.34-.98.979-1.771,1.521-2.315.532-.533,1.144-.914,1.815-1.129.689-.224,1.472-.336,2.328-.336.653,0,1.294.078,1.782.18.673.142.933.219,1.109.271.708.215.802.007.941-.336l1.658-4.555c.171-.489-.246-.696-.399-.756Z" fill="#fff" fill-rule="evenodd"/><path d="M416.443,189.428c0,.362-.258.658-.62.658h-5.752c-.364,0-.623-.295-.623-.658v-46.294c0-.361.259-.654.623-.654h5.752c.363,0,.62.293.62.654v46.294Z" fill="#fff" fill-rule="evenodd"/></svg>